<svg width="72" height="71" viewBox="0 0 72 71" fill="none" xmlns="http://www.w3.org/2000/svg">
<path fill-rule="evenodd" clip-rule="evenodd" d="M36.0298 0C16.1062 0 0 16.2708 0 36.3999C0 52.4902 10.3198 66.1103 24.6362 70.9309C26.4261 71.2933 27.0817 70.1477 27.0817 69.184C27.0817 68.3402 27.0227 65.4477 27.0227 62.4339C17.0001 64.6038 14.913 58.0948 14.913 58.0948C13.3023 53.8762 10.9157 52.792 10.9157 52.792C7.63533 50.5621 11.1547 50.5621 11.1547 50.5621C14.7935 50.8032 16.7029 54.2985 16.7029 54.2985C19.9235 59.8424 25.1133 58.276 27.2012 57.3116C27.4991 54.9612 28.4542 53.3341 29.4683 52.4303C21.4745 51.5865 13.0641 48.4529 13.0641 34.4711C13.0641 30.4936 14.4948 27.2395 16.7619 24.7086C16.4042 23.8049 15.1512 20.0678 17.1203 15.066C17.1203 15.066 20.1625 14.1016 27.022 18.8023C29.9588 18.0056 32.9874 17.6002 36.0298 17.5968C39.072 17.5968 42.1732 18.0191 45.0369 18.8023C51.8971 14.1016 54.9393 15.066 54.9393 15.066C56.9084 20.0678 55.6546 23.8049 55.297 24.7086C57.6238 27.2395 58.9955 30.4936 58.9955 34.4711C58.9955 48.4529 50.5851 51.5258 42.5316 52.4303C43.8443 53.5752 44.9771 55.7444 44.9771 59.1797C44.9771 64.061 44.9181 67.9785 44.9181 69.1833C44.9181 70.1477 45.5745 71.2933 47.3637 70.9317C61.68 66.1096 71.9998 52.4902 71.9998 36.3999C72.0588 16.2708 55.8936 0 36.0298 0Z" fill="#FDECD2"/>
</svg>
